<svg width="720" height="330" viewBox="0 0 720 330" xmlns="http://www.w3.org/2000/svg" font-family="-apple-system, 'SF Pro Rounded', 'Segoe UI', sans-serif">
  <defs>
    <linearGradient id="brand" x1="0" y1="0" x2="1" y2="1">
      <stop offset="0" stop-color="#1a61f2"/>
      <stop offset="1" stop-color="#6b2ee6"/>
    </linearGradient>
    <linearGradient id="rising" x1="0" y1="0" x2="1" y2="1">
      <stop offset="0" stop-color="#f27319"/>
      <stop offset="1" stop-color="#e62659"/>
    </linearGradient>
    <filter id="shadow" x="-20%" y="-20%" width="140%" height="140%">
      <feDropShadow dx="0" dy="6" stdDeviation="12" flood-color="#000" flood-opacity="0.18"/>
    </filter>
  </defs>

  <!-- ===== Виджет «Топ» ===== -->
  <g filter="url(#shadow)">
    <rect x="30" y="30" width="320" height="270" rx="22" fill="#f7f8fc"/>
    <rect x="30" y="30" width="320" height="270" rx="22" fill="url(#brand)" opacity="0.06"/>
  </g>
  <rect x="52" y="52" width="24" height="24" rx="7" fill="url(#brand)"/>
  <path d="M57 68 l5 -5 3 3 6 -7" stroke="#fff" stroke-width="2.4" fill="none" stroke-linecap="round" stroke-linejoin="round"/>
  <text x="86" y="70" font-size="16" font-weight="700" fill="#1c1c26">🇷🇺 Россия</text>
  <text x="252" y="69" font-size="11" fill="#8a8a96">Топ · день</text>
  <text x="322" y="69" font-size="12" fill="#b0b0ba">⟳</text>

  <g font-size="13.5">
    <circle cx="63" cy="103" r="9" fill="url(#brand)"/><text x="60" y="107" font-size="10" font-weight="700" fill="#fff">1</text>
    <text x="82" y="108" fill="#1c1c26" font-weight="500">курс доллара</text>
    <rect x="264" y="94" width="56" height="18" rx="9" fill="#1a61f2" opacity="0.12"/>
    <text x="273" y="107" font-size="11" font-weight="600" fill="#1a61f2">100K+</text>

    <circle cx="63" cy="137" r="9" fill="url(#brand)"/><text x="60" y="141" font-size="10" font-weight="700" fill="#fff">2</text>
    <text x="82" y="142" fill="#1c1c26" font-weight="500">погода москва</text>
    <rect x="270" y="128" width="50" height="18" rx="9" fill="#1a61f2" opacity="0.12"/>
    <text x="280" y="141" font-size="11" font-weight="600" fill="#1a61f2">50K+</text>

    <circle cx="63" cy="171" r="9" fill="url(#brand)"/><text x="60" y="175" font-size="10" font-weight="700" fill="#fff">3</text>
    <text x="82" y="176" fill="#1c1c26" font-weight="500">матч спартак цска</text>
    <rect x="270" y="162" width="50" height="18" rx="9" fill="#1a61f2" opacity="0.12"/>
    <text x="280" y="175" font-size="11" font-weight="600" fill="#1a61f2">20K+</text>

    <circle cx="63" cy="205" r="9" fill="#e4e4ea"/><text x="60" y="209" font-size="10" font-weight="700" fill="#8a8a96">4</text>
    <text x="82" y="210" fill="#1c1c26" font-weight="500">новости дня</text>
    <rect x="270" y="196" width="50" height="18" rx="9" fill="#1a61f2" opacity="0.12"/>
    <text x="280" y="209" font-size="11" font-weight="600" fill="#1a61f2">10K+</text>

    <circle cx="63" cy="239" r="9" fill="#e4e4ea"/><text x="60" y="243" font-size="10" font-weight="700" fill="#8a8a96">5</text>
    <text x="82" y="244" fill="#1c1c26" font-weight="500">расписание электричек</text>
    <rect x="276" y="230" width="44" height="18" rx="9" fill="#1a61f2" opacity="0.12"/>
    <text x="285" y="243" font-size="11" font-weight="600" fill="#1a61f2">5K+</text>
  </g>

  <!-- ===== Виджет «Райзинг» ===== -->
  <g filter="url(#shadow)">
    <rect x="380" y="30" width="320" height="270" rx="22" fill="#f7f8fc"/>
    <rect x="380" y="30" width="320" height="270" rx="22" fill="url(#rising)" opacity="0.06"/>
  </g>
  <rect x="402" y="52" width="24" height="24" rx="7" fill="url(#rising)"/>
  <path d="M414 58 c-3 4 -6 6 -6 10 a6 6 0 0 0 12 0 c0 -4 -3 -6 -6 -10z" fill="#fff"/>
  <text x="436" y="70" font-size="16" font-weight="700" fill="#1c1c26">🇷🇺 🇺🇸 🇹🇷</text>
  <text x="586" y="69" font-size="11" fill="#8a8a96">Райзинг · час</text>
  <text x="672" y="69" font-size="12" fill="#b0b0ba">⟳</text>

  <g font-size="13.5">
    <circle cx="413" cy="103" r="9" fill="url(#rising)"/><text x="410" y="107" font-size="10" font-weight="700" fill="#fff">1</text>
    <text x="432" y="108" fill="#1c1c26" font-weight="500">🇺🇸 goog stock</text>
    <rect x="612" y="94" width="58" height="18" rx="9" fill="#1f9d4d" opacity="0.14"/>
    <text x="619" y="107" font-size="11" font-weight="700" fill="#1f9d4d">+1000%</text>

    <circle cx="413" cy="137" r="9" fill="url(#rising)"/><text x="410" y="141" font-size="10" font-weight="700" fill="#fff">2</text>
    <text x="432" y="142" fill="#1c1c26" font-weight="500">🇷🇺 алина загитова</text>
    <rect x="618" y="128" width="52" height="18" rx="9" fill="#1f9d4d" opacity="0.14"/>
    <text x="626" y="141" font-size="11" font-weight="700" fill="#1f9d4d">+900%</text>

    <circle cx="413" cy="171" r="9" fill="url(#rising)"/><text x="410" y="175" font-size="10" font-weight="700" fill="#fff">3</text>
    <text x="432" y="176" fill="#1c1c26" font-weight="500">🇹🇷 istanbul hava durumu</text>
    <rect x="618" y="162" width="52" height="18" rx="9" fill="#1f9d4d" opacity="0.14"/>
    <text x="626" y="175" font-size="11" font-weight="700" fill="#1f9d4d">+700%</text>

    <circle cx="413" cy="205" r="9" fill="#e4e4ea"/><text x="410" y="209" font-size="10" font-weight="700" fill="#8a8a96">4</text>
    <text x="432" y="210" fill="#1c1c26" font-weight="500">🇺🇸 caitlin clark</text>
    <rect x="618" y="196" width="52" height="18" rx="9" fill="#1f9d4d" opacity="0.14"/>
    <text x="626" y="209" font-size="11" font-weight="700" fill="#1f9d4d">+400%</text>

    <circle cx="413" cy="239" r="9" fill="#e4e4ea"/><text x="410" y="243" font-size="10" font-weight="700" fill="#8a8a96">5</text>
    <text x="432" y="244" fill="#1c1c26" font-weight="500">🇷🇺 радар бпла</text>
    <rect x="618" y="230" width="52" height="18" rx="9" fill="#1f9d4d" opacity="0.14"/>
    <text x="626" y="243" font-size="11" font-weight="700" fill="#1f9d4d">+200%</text>
  </g>
</svg>
